<svg xmlns="http://www.w3.org/2000/svg" width="850.394" height="850.394" overflow="visible"><path fill="#c8c8c8" d="M480.47 750.16c2.99-.91 6.29-1.33 9.75-1.33h10.07c3.47 0 6.78.72 9.77 2.02 8.66 3.75 14.74 12.351 14.811 22.381v.17c0 13.58-11.01 24.58-24.58 24.58h-10.07c-13.569 0-24.569-11-24.569-24.58l.409-6.5c.36-2.271 1.04-4.641 2.311-7.07 2.598-5.001 6.878-8.091 12.098-9.671"/><path fill="#c8c8c8" d="M480.47 750.16V571.4l-.02-.301 29.609-1.92.101 181.45-.101.22a24.5 24.5 0 0 0-9.77-2.02h-10.07c-3.459.001-6.759.421-9.749 1.331"/><path fill="#0b00ea" d="m480.45 571.1-3.29.21s-128.31 16.311-195.2-3.42c-66.9-19.739-71.29-118.439-71.29-118.439s-7.8-186.43 0-264.3c7.81-77.86 31.61-124.14 122.83-116.24 109.19 9.46 163.44 50.26 181.79 67.44H472.5c-4.78 0-9.1 1.93-12.22 5.06a17.2 17.2 0 0 0-4.891 9.84l-.1-.01-110.83-.08s-38.38-3.29-38.38 64.7v202.88s-6.58 42.76 34 61.41c40.57 18.649 137.08 35.1 137.08 35.1l3.29.16 29.5 1.45 11.76.58v50.989l-11.65.75z"/><path fill="#0b00ea" d="M515.29 136.35h8.75c9.54 0 17.28 7.74 17.28 17.27 0 9.54-7.74 17.28-17.28 17.28H472.5c-9.55 0-17.28-7.74-17.28-17.28 0-.8.061-1.59.17-2.37a17.2 17.2 0 0 1 4.891-9.84 17.2 17.2 0 0 1 12.22-5.06z"/><path fill="#c8c8c8" d="M430.55 761.45c6.36 0 11.51 5.27 11.51 11.78 0 6.52-5.149 11.789-11.51 11.789s-11.51-5.27-11.51-11.789c0-6.51 5.15-11.78 11.51-11.78m244.43 11.78c.17-6.351 5.25-11.44 11.5-11.44 6.359 0 11.51 5.27 11.51 11.78 0 6.52-5.15 11.79-11.51 11.79s-11.511-5.271-11.511-11.79c.001-.11.001-.23.011-.34M510.06 370.59v143.97l-.11 2.3-29.5-1.45V364.73h29.61z"/><path fill="#c8c8c8" d="m530.91 312.64-20.85 57.95v-5.86h-29.61v6.58l-21.11-58.67h61.41z"/><g fill="none" stroke="#000"><path stroke-width="19.74" d="m455.29 151.24-110.83-.08s-38.38-3.29-38.38 64.7v202.88s-6.58 42.76 34 61.41c40.57 18.649 137.08 35.1 137.08 35.1l3.29.16 29.5 1.45 11.76.58v50.989l-11.65.75-29.609 1.92-3.29.21s-128.31 16.311-195.2-3.42c-66.9-19.739-71.29-118.439-71.29-118.439s-7.8-186.43 0-264.3c7.81-77.86 31.61-124.14 122.83-116.24 109.19 9.46 163.44 50.26 181.79 67.44l.01.01"/><path stroke-width="19.74" d="M515.29 136.35h8.75c9.54 0 17.28 7.74 17.28 17.27 0 9.54-7.74 17.28-17.28 17.28H472.5c-9.55 0-17.28-7.74-17.28-17.28 0-.8.061-1.59.17-2.37a17.2 17.2 0 0 1 4.891-9.84 17.2 17.2 0 0 1 12.22-5.06zm-5.23 432.83.1 181.45m-29.71-235.22V364.73h29.61v149.83m-29.59 236.38V571.4m-.02-200.09-21.11-58.67h10.16"/><path stroke-width="19.74" d="m509.8 371.31.26-.72 20.85-57.95H469.5m55.37 460.59v.17c0 13.58-11.01 24.58-24.58 24.58h-10.07c-13.569 0-24.569-11-24.569-24.58l.409-6.5c.36-2.271 1.04-4.641 2.311-7.07 2.6-5 6.88-8.09 12.1-9.67 2.99-.91 6.29-1.33 9.75-1.33h10.07c3.47 0 6.78.72 9.77 2.02 8.659 3.75 14.739 12.35 14.809 22.38z"/><path stroke-width="13.16" d="M442.06 773.23c0 6.52-5.149 11.789-11.51 11.789s-11.51-5.27-11.51-11.789c0-6.511 5.15-11.78 11.51-11.78s11.51 5.27 11.51 11.78zm255.93.34c0 6.52-5.15 11.79-11.51 11.79s-11.511-5.271-11.511-11.79c0-.11 0-.23.011-.34.17-6.351 5.25-11.44 11.5-11.44 6.36 0 11.51 5.27 11.51 11.78z"/><path stroke-width="26.32" d="M524.86 773.23H675.1m-233.04 0 23.18.09"/></g><path fill="none" d="M0 0h850.394v850.394H0z"/></svg>