<svg xmlns="http://www.w3.org/2000/svg" width="850.394" height="850.394" overflow="visible"><path fill="none" d="M466.001 161.579H104.927v553.139H466"/><path fill="#5668af" d="M422.37 125.849c-19.736 0-35.73 16.001-35.73 35.732 0 19.736 15.994 35.728 35.73 35.728 19.737 0 35.733-15.991 35.733-35.728 0-19.731-15.997-35.732-35.733-35.732m-79.362 0c-19.736 0-35.73 16.001-35.73 35.732 0 19.736 15.994 35.728 35.73 35.728s35.732-15.991 35.732-35.728c.001-19.731-15.995-35.732-35.732-35.732m-79.361 0c-19.736 0-35.73 16.001-35.73 35.732 0 19.736 15.994 35.728 35.73 35.728s35.732-15.991 35.732-35.728c.001-19.731-15.995-35.732-35.732-35.732m-79.361 0c-19.736 0-35.73 16.001-35.73 35.732 0 19.736 15.994 35.728 35.73 35.728s35.732-15.991 35.732-35.728c.001-19.731-15.996-35.732-35.732-35.732M69.197 240.599c0 19.736 16.001 35.73 35.732 35.73 19.736 0 35.728-15.994 35.728-35.73s-15.991-35.732-35.728-35.732c-19.731-.001-35.732 15.995-35.732 35.732m0 79.02c0 19.736 16.001 35.73 35.732 35.73 19.736 0 35.728-15.994 35.728-35.73s-15.991-35.732-35.728-35.732c-19.731 0-35.732 15.996-35.732 35.732m0 79.02c0 19.736 16.001 35.73 35.732 35.73 19.736 0 35.728-15.994 35.728-35.73s-15.991-35.732-35.728-35.732c-19.731 0-35.732 15.996-35.732 35.732m0 79.02c0 19.736 16.001 35.73 35.732 35.73 19.736 0 35.728-15.994 35.728-35.73s-15.991-35.732-35.728-35.732c-19.731 0-35.732 15.996-35.732 35.732m0 79.021c0 19.736 16.001 35.73 35.732 35.73 19.736 0 35.728-15.994 35.728-35.73s-15.991-35.732-35.728-35.732c-19.731-.001-35.732 15.995-35.732 35.732m0 79.02c0 19.736 16.001 35.729 35.732 35.729 19.736 0 35.728-15.993 35.728-35.729s-15.991-35.732-35.728-35.732c-19.731 0-35.732 15.996-35.732 35.732m115.091 114.747c19.736 0 35.73-16 35.73-35.732 0-19.736-15.994-35.727-35.73-35.727s-35.732 15.99-35.732 35.727c0 19.732 15.996 35.732 35.732 35.732m79.361 0c19.736 0 35.73-16 35.73-35.732 0-19.736-15.994-35.727-35.73-35.727s-35.732 15.99-35.732 35.727c0 19.732 15.996 35.732 35.732 35.732m79.361 0c19.736 0 35.73-16 35.73-35.732 0-19.736-15.994-35.727-35.73-35.727s-35.732 15.99-35.732 35.727c0 19.732 15.996 35.732 35.732 35.732m79.362 0c19.736 0 35.73-16 35.73-35.732 0-19.736-15.994-35.727-35.73-35.727s-35.732 15.99-35.732 35.727c-.001 19.732 15.995 35.732 35.732 35.732M140.657 161.58c0 19.736-16.001 35.729-35.732 35.729-19.736 0-35.728-15.993-35.728-35.729s15.991-35.732 35.728-35.732c19.731 0 35.732 15.996 35.732 35.732m-35.728 517.408c19.736 0 35.729 16 35.729 35.732 0 19.736-15.993 35.727-35.729 35.727s-35.732-15.99-35.732-35.727c-.001-19.732 15.995-35.732 35.732-35.732"/><path fill="none" d="M0 0h850.394v850.394H0z"/><path fill="none" d="M648 385.727h114.33v114.325H648z"/><circle cx="762.33" cy="423.835" r="14.292" fill="#5668af"/><circle cx="762.33" cy="461.944" r="14.292" fill="#5668af"/><circle cx="724.22" cy="500.052" r="14.292" fill="#5668af"/><circle cx="686.109" cy="500.052" r="14.292" fill="#5668af"/><circle cx="648" cy="461.943" r="14.292" fill="#5668af"/><circle cx="648" cy="423.834" r="14.292" fill="#5668af"/><circle cx="686.11" cy="385.727" r="14.292" fill="#5668af"/><circle cx="724.221" cy="385.727" r="14.292" fill="#5668af"/><circle cx="762.33" cy="500.052" r="14.292" fill="#5668af"/><circle cx="648" cy="500.051" r="14.292" fill="#5668af"/><circle cx="648" cy="385.727" r="14.292" fill="#5668af"/><circle cx="762.33" cy="385.727" r="14.292" fill="#5668af"/><path fill="#fff" stroke="#231f20" stroke-width="28" d="m611.964 441.436-289.74.86"/><path fill="none" stroke="#231f20" stroke-width="28" d="m417.209 526.754-96.823-84.767 96.468-85.312"/><path fill="none" d="M0 0h850.394v850.394H0z"/></svg>