<svg xmlns="http://www.w3.org/2000/svg" id="Layer_1" viewBox="0 0 850 850"><style>.st0{fill:#ffffc2}.st1{fill:#bd2226}.st2{fill:#c8c8c8}.st3{fill:#f6cc4b}.st4{fill:#ffeec8}.st6{stroke-width:7.5}.st6,.st7,.st8{fill:none;stroke:#231f20;stroke-linecap:round;stroke-miterlimit:10}.st7{stroke-width:7}.st8{stroke-width:14}</style><path d="M589.2 527.5V634h-234v-17.7h233.7v-88.8z" class="st0"/><path d="M355.2 616.3v-105h234v16.2H358.4v88.8z" class="st0"/><path d="M356.4 424.5v86.8h-1.2v-103h234v16.2z" class="st0"/><path d="M589.2 634h3.7v88.8H358.4V634zm-.3-106.5v88.8H358.4v-88.8zm.3-103v86.8H356.4v-86.8zm0-16.2h-231v-88.8h228l4.5 13.3v75.5z" class="st1"/><path d="m579.2 298.5 7 21h-228v9.8l-2.8-21.8 23.8-66.5 178.5.3 23.2 56.7zm117.5 39.3 69.7 226-84.7 26-69.8-226zm72.2-88.5-44.2 77-205.3-118 44.3-76.8z" class="st1"/><path d="m345.2 166.8 2.2 1 2.3 1 2 1.5 2 1.5 1.7 1.7 1.5 1.8 1.5 2 1.3 2 1.2 2.2.8 2.3.7 2.2.5 2.5.5 2.3.3 2.5v2.5l-.3 2.2-3.5-.5-37.5-20.2-4.5-19.5z" class="st2"/><path d="m320.2 142.8-4 12.2-22.8-7.5 4-12zm-16.8 109v.2l-1 3.5-.7 3.5v.3l-5.8 17.7-10.2 32.3-12.5 40.2-12.8 42.3-5.7-3.3-3.5-1.7-.8.2-1.7-3-1.8-2.5-1-1-1.2-1.2-1.5-1-1.8-1-2.2-1-2.8-1-6.7-2-9-2.3-12-2.5 1-5.2 14-40.3 12.7-37.2 14.8-44v-.3l2-5 1.7-3 1.5-2.2 1.5-1.5 1.5-1 1-.8 1-.5h.8l39.2 12.8.5.5.5.7.5 1.3.5 1.5.3 2v2.5z" class="st3"/><path d="m275.9 162.5-42.2-5.7-1-.3 1.2-2.2 1.3-2 1.5-1.8 1.7-2 1.8-1.5 2-1.7 2.2-1.3 2.3-1.2 2.2-1 2.5-.8 2.3-.7 2.5-.3 2.5-.2 2.5.2 2.7.3 2.5.7 25 8.3z" class="st2"/><path d="m303.4 251.8.3-3v-2.5l-.3-2-.5-1.5-.5-1.3-.5-.7-.5-.5-39.2-12.8h-.8l-1 .5-1 .8-1.5 1-1.5 1.5-1.5 2.2-1.7 3 1.7-5.2 1.3-4.8 1-4.2.5-4 .2-3.5.3-3v-4.3l58.2 19-2.5 3.3-1.5 2.2-1.7 3-1.8 3.5-2 4-1.7 4.5z" class="st3"/><path d="m260.4 391.8 18 10.7 1 1.8.8 1.7.5 1.5.2 1.5v3l.3 1.8-.3 1.7-.5 2.3-.7 2.7-1.5 2.8-.8 1.2-1.2 1.5-1.3 1.3-1.5 1.2-2 1.3-2.2 1-2.3 1-2.7.7-5.5.8-5.8.5h-10.7l-8.3-.8-3.2-.5-8-2.2-7.5-2.5-10.3-3.8-2.7-1.2-2.3-1-1.2-.5-1-.8-.5-.7-.5-1-.3-1v-1l.3-2.8.2-1.5.8-1.2.7-1 .8-1 1-.8 1-.5 1.2-.5 1.3-.2 2.5-.3h2.7l2.3.5 2.2.8 3.3 1.2 2.7 1 4.8 1.3 4.2.5 4.5.7h2.8l4.2-1 .3-.2 1.5 1.2 3.5 2 2.7 1.3 2.8 1 2.2.5h2l1.8-.3 1.5-.7 1.5-.8 1-1 .7-1 1.3-2 .5-1.5.2-.5-1.2-2.7-4.8-8 .8-.3z" class="st4"/><path d="m233.7 156.8 42.2 5.7 15.5-13.2 26.5 8.5 4.5 19.5 37.5 20.2 3.5.5-.5 2.3-.5 2-4 11.7-.7 2.5-1.3 2.3-1.5 2-1.5 2-1.7 1.7-2 1.5-2 1.3-2.3 1.2-2.5.8-2.2.7-2.5.5-2.8.3h-2.5l-2.7-.3-2.8-.5-2.7-.7-8.3-2.8-58.2-19-12.3-4-2.7-1-2.5-1-2.3-1.5-2-1.5-2-1.7-1.7-2-1.5-2-1.5-2-1-2.3-1-2.5-.8-2.2-.2-2.5-.3-2.5.3-2.5.2-2.5.8-2.5 3.7-11.8 1.3-3z" style="fill:#7a7878"/><path d="m208.2 368.3.5.2 12 2.5 9 2.3 6.7 2 2.8 1 2.2 1 1.8 1 1.5 1 1.2 1.2 1 1 1.8 2.5 1.7 3 1.8 3.3 5.2 9 4.8 8 1.2 2.7-.2.5-.5 1.5-1.3 2-.7 1-1 1-1.5.8-1.5.7-1.8.3h-2l-2.2-.5-2.8-1-2.7-1.3-3.5-2-1.5-1.2-3-2-2.3-2-3.7-3.5-2.8-3-2.2-2.5-2-2-1.3-1-1.5-.8-1.7-.5-2-.5-2.3-.5-2.7-.2-4.5-.3-4 .5-1.8.5-1.5.5-3 1.5-8.5 22.3v2l-1.7.2-1.8.3-1.5.7-1.5.8-1.2.7-.8 1.3-.7 1.2-.5 1.5-.3 2v1.5l.3 1.5.7 1 1.3 1.3 1.5 1 2.5 1 2.7 1 .5.2-2-.5h-2l-2.2.5-2 .5-1.8 1-1.5 1.3-1.2 1.5-.5.7-.3 1-.2 2v1.5l.2 1.3.8 1.2-.3.3-1.2 4-1 3.7-.5 3.5v3.3l.2 3 .8 2.7 1.2 2.5 1.3 2.3 1.7 2.2 2 2 2.5 1.8 2.5 1.7 3 1.5 3.3 1.5 3.2 1.3 3.5 1.2 5.3 1.8 5.2 1 4.8.5h4.5l2.2-.3 2-.5 2-.5 2-.7 1.8-1 1.7-1.3 1.8-1.5 1.5-1.7h5.2l5.3-.5-7.3 3.5-7.2 3-7 2.5-7 2.2-6.8 1.5-3.2.5-3.3.3-3.2.2h-3.3l-3.2-.2-3.3-.5-6.2-1.5-8.8-2.5-21.5-6.3-11.2-3.2-10.5-2.8-4.5-1-4.3-.7-3.5-.3-3-.2-32.2 2.2-8.3-70 3.8.5 3.2.3h5l4.8-.5 5-1 4.7-1 5-1.8 4.5-1.7 4.8-2 4.5-2.3 4.2-2.2 4.3-2.5 8-5 7.2-5 6.5-4.3 2.8-2.2 2.7-2 4.8-4 2.2-1.8 2.3-1.5 2.2-1.5 2.8-1.2 2.7-.8 3.3-.7 3.7-.5h4.3l4.7.2 5.8.5 6.2 1z" class="st4"/><path d="m243.7 483.3-5.3.5h-5.2l-6.8-.3-5.7-.7-5.3-1-3.5-1-3-1-5-2-3.7-1.8-2.8-1.2-2.5-.8-2-1-1.5-.7-1-1-.5-1-.5-1v-1.5l.5-1.8.5-1.7 1-1.5 1.3-1 1.5-.8 2-.5h2.2l2.5.5 3 .5 8 3 3.8 1.3 3.5 1 3 .2 8.2.5 5.3-.2h5.5l5.7-.5 5.8-1 3.7-1 3.3-1v.2l.2.8.5 1.7.3 2.5v1.5l-.3 1.5-.5 1.5-.7 1.8-1 1.5-1.5 1.5-2 1.5-2.3 1.2-3 1-3.2 1zm20.5-50.8 2.7-.7 2.3-1 2.2-1 2-1.3 2.5.5.5 2 .5 2v2.8l-.2 1.5-.5 1.5-.5 1.5-1 1.7-1 1.5-1.8 1.5-1.7 1.3-2.3 1.2-3.7 1.5-4.5 1.3-6 1-6 .5h-11.3l-8.2-.3-3.3-.2-4.5-1.5-5.2-1.8-10.5-4-15.8-6.5-.5-.2-2.7-1-2.5-1-1.5-1-1.3-1.3-.7-1-.3-1.5V429l.3-2 .5-1.5.7-1.2.8-1.3 1.2-.7 1.5-.8 1.5-.7 1.8-.3 1.7-.2h2.5l2.5.2 2.8.5 2.7 1v-.2l2.3 1 2.7 1.2 10.3 3.8 7.5 2.5 8 2.2 3.2.5 8.3.8h10.7l5.8-.5z" class="st4"/><path d="m239.9 412-4.2 1h-2.8l-4.5-.7-4.2-.5-4.8-1.3-2.7-1-3.3-1.2-2.2-.8-2.3-.5h-2.7l-2.5.3-1.3.2-1.2.5-1 .5-1 .8-.8 1-.7 1-.8 1.2-.2 1.5-.3 2.8v1l.3 1 .5 1 .5.7 1 .8 1.2.5v.2l-2.7-1-2.8-.5-2.5-.2h-2.5v-2l8.5-22.3 3-1.5 1.5-.5 1.8-.5 4-.5 4.5.3 2.7.2 2.3.5 2 .5 1.7.5 1.5.8 1.3 1 2 2 2.2 2.5 2.8 3 3.7 3.5 2.3 2 3 2z" class="st3"/><path d="m188.9 437.5 15.8 6.5 10.5 4 5.2 1.8 4.5 1.5 3.3.2 8.2.3h11.3l6-.5 6-1 4.5-1.3 3.7-1.5.3 1.3.5 1.5.2 2-.2 2.2-.3 1.3-.7 1.2-.5 1.3-1 1-1.3 1.2-1.5 1.3-1.7 1-2 1-3.3 1-3.7 1-5.8 1-5.7.5h-5.5l-5.3.2-8.2-.5-3-.2-3.5-1-3.8-1.3-8-3-12.5-5-7.5-3.2-2.7-1-2.3-1-1.7-.8-1-1-.8-1.2-.2-1.3v-1.5l.2-2 .3-1 .5-.7 1.2-1.5 1.5-1.3 1.8-1 2-.5 2.2-.5h2z" class="st4"/><path d="m203.9 461.5-3-.5-2.5-.5h-2.2l-2 .5-1.5.8-1.3 1-1 1.5-.5 1.7-.5 1.8v1.5l.5 1 .5 1 1 1 1.5.7 2 1 2.5.8 2.8 1.2 3.7 1.8 5 2 3 1 3.5 1 5.3 1 5.7.7 6.8.3-1.5 1.7-1.8 1.5-1.7 1.3-1.8 1-2 .7-2 .5-2 .5-2.2.3h-4.5l-4.8-.5-5.2-1-5.3-1.8-3.5-1.2-3.2-1.3-3.3-1.5-3-1.5-2.5-1.7-2.5-1.8-2-2-1.7-2.2-1.3-2.3-1.2-2.5-.8-2.7-.2-3V461l.5-3.5 1-3.7 1.2-4 .3-.3 1 1 1.7.8 2.3 1 2.7 1 7.5 3.2z" class="st3"/><path d="m188.9 437.5 1.3.3 1.2.5" class="st6"/><path d="m267.7 447 .2.5.3 1.3.5 1.5.2 2-.2 2.2-.3 1.3-.7 1.2-.5 1.3-1 1-1.3 1.2-1.5 1.3-1.7 1-2 1-3.3 1-3.7 1-5.8 1-5.7.5h-5.5l-5.3.2-8.2-.5-3-.2-3.5-1-3.8-1.3-8-3-12.5-5-7.5-3.2-2.7-1-2.3-1-1.7-.8-1-1-.8-1.2-.2-1.3v-1.5l.2-2 .3-1 .5-.7 1.2-1.5 1.5-1.3 1.8-1 2-.5 2.2-.5h2l2 .5" class="st6"/><path d="m239.9 412-4.2 1h-2.8l-4.5-.7-4.2-.5-4.8-1.3-2.7-1-3.3-1.2-2.2-.8-2.3-.5h-2.7l-2.5.3-1.3.2-1.2.5-1 .5-1 .8-.8 1-.7 1-.8 1.2-.2 1.5-.3 2.8v1l.3 1 .5 1 .5.7 1 .8 1.2.5 2.3 1 2.7 1.2 10.3 3.8 7.5 2.5 8 2.2 3.2.5 8.3.8h10.7l5.8-.5 5.5-.8 2.7-.7 2.3-1 2.2-1 2-1.3 1.5-1.2 1.3-1.3 1.2-1.5.8-1.2 1.5-2.8.7-2.7.5-2.3.3-1.7-.3-1.8v-3l-.2-1.5-.5-1.5-.8-1.7-1-1.8-18-10.7-5.7-3.3-3.5-1.7" class="st7"/><path d="m275.9 429 .5 2 .5 2v2.8l-.2 1.5-.5 1.5-.5 1.5-1 1.7-1 1.5-1.8 1.5-1.7 1.3-2.3 1.2-3.7 1.5-4.5 1.3-6 1-6 .5h-11.3l-8.2-.3-3.3-.2-4.5-1.5-5.2-1.8-10.5-4-15.8-6.5-.5-.2-2.7-1-2.5-1-1.5-1-1.3-1.3-.7-1-.3-1.5V429l.3-2 .5-1.5.7-1.2.8-1.3 1.2-.7 1.5-.8 1.5-.7 1.8-.3 1.7-.2h2.5l2.5.2 2.8.5 2.7 1m59.8 42 .2.8.5 1.7.3 2.5v1.5l-.3 1.5-.5 1.5-.7 1.8-1 1.5-1.5 1.5-2 1.5-2.3 1.2-3 1-3.2 1-2.5.3-5.3.5h-5.2l-6.8-.3-5.7-.7-5.3-1-3.5-1-3-1-5-2-3.7-1.8-2.8-1.2-2.5-.8-2-1-1.5-.7-1-1-.5-1-.5-1v-1.5l.5-1.8.5-1.7 1-1.5 1.3-1 1.5-.8 2-.5h2.2l2.5.5 3 .5 1.8.8" class="st7"/><path d="m243.7 483.3-7.3 3.5-7.2 3-7 2.5-7 2.2-6.8 1.5-3.2.5-3.3.3-3.2.2h-3.3l-3.2-.2-3.3-.5-6.2-1.5-8.8-2.5-21.5-6.3-11.2-3.2-10.5-2.8-4.5-1-4.3-.7-3.5-.3-3-.2-32.2 2.2m-8.3-70 3.8.5 3.2.3h5l4.8-.5 5-1 4.7-1 5-1.8 4.5-1.7 4.8-2 4.5-2.3 4.2-2.2 4.3-2.5 8-5 7.2-5 6.5-4.3 2.8-2.2 2.7-2 4.8-4 2.2-1.8 2.3-1.5 2.2-1.5 2.8-1.2 2.7-.8 3.3-.7 3.7-.5h4.3l4.7.2 5.8.5 6.2 1 7.3 1.3.5.2 12 2.5 9 2.3 6.7 2 2.8 1 2.2 1 1.8 1 1.5 1 1.2 1.2 1 1 1.8 2.5 1.7 3 1.8 3.3 5.2 9 4.8 8 1.2 2.7-.2.5-.5 1.5-1.3 2-.7 1-1 1-1.5.8-1.5.7-1.8.3h-2l-2.2-.5-2.8-1-2.7-1.3-3.5-2-1.5-1.2-3-2-2.3-2-3.7-3.5-2.8-3-2.2-2.5-2-2-1.3-1-1.5-.8-1.7-.5-2-.5-2.3-.5-2.7-.2-4.5-.3-4 .5-1.8.5-1.5.5-3 1.5-2.5 1.5-2 1.8-2 2.2-2 2.3-3.7 5.5-4 6.2-5.5 9.3-3.8 5.7-2.2 2.8-2.5 3-2.8 2.7-3.2 2.8-3.3 2.5-3.7 2.5-4.3 2.2-4.5 1.8-5.2 1.7-5.5 1.3" class="st7"/><path d="M251.2 241.5v.3l-14.8 44-12.7 37.2-14 40.3-1 2.5m94.7-114 .3-3v-2.5l-.3-2-.5-1.5-.5-1.3-.5-.7-.5-.5-39.2-12.8h-.8l-1 .5-1 .8-1.5 1-1.5 1.5-1.5 2.2-1.7 3-1 2.3-1 2.7m50.5 17.5.2-.7 1-3.3.5-3m-45.2 147 2.2-7.2 12.8-42.3 12.5-40.2 10.2-32.3 5.8-17.7" class="st8"/><path d="m175.9 449.8-1.2 4-1 3.7-.5 3.5v3.3l.2 3 .8 2.7 1.2 2.5 1.3 2.3 1.7 2.2 2 2 2.5 1.8 2.5 1.7 3 1.5 3.3 1.5 3.2 1.3 3.5 1.2 5.3 1.8 5.2 1 4.8.5h4.5l2.2-.3 2-.5 2-.5 2-.7 1.8-1 1.7-1.3 1.8-1.5 1.5-1.7" class="st7"/><path d="m198.4 394-.5 2-8.5 22.3" class="st6"/><path d="m363.4 198-.5 2.3-.5 2-4 11.7-.7 2.5-1.3 2.3-1.5 2-1.5 2-1.7 1.7-2 1.5-2 1.3-2.3 1.2-2.5.8-2.2.7-2.5.5-2.8.3h-2.5l-2.7-.3-2.8-.5-2.7-.7-8.3-2.8-58.2-19-12.3-4-2.7-1-2.5-1-2.3-1.5-2-1.5-2-1.7-1.7-2-1.5-2-1.5-2-1-2.3-1-2.5-.8-2.2-.2-2.5-.3-2.5.3-2.5.2-2.5.8-2.5 3.7-11.8 1.3-3 1.2-2.2 1.3-2 1.5-1.8 1.7-2 1.8-1.5 2-1.7 2.2-1.3 2.3-1.2 2.2-1 2.5-.8 2.3-.7 2.5-.3 2.5-.2 2.5.2 2.7.3 2.5.7 25 8.3 26.5 8.5 27.3 9 2.2 1 2.3 1 2 1.5 2 1.5 1.7 1.7 1.5 1.8 1.5 2 1.3 2 1.2 2.2.8 2.3.7 2.2.5 2.5.5 2.3.3 2.5v2.5zm-43.2-55.2-4 12.2-22.8-7.5 4-12z" class="st8"/><path d="m257.9 206.3.3 1.2v4.3l-.3 3-.2 3.5-.5 4-1 4.2-1.3 4.8-1.7 5.2-2 5-.5 1.3m66.2-17-.5.7-2.5 3.3-1.5 2.2-1.7 3-1.8 3.5-2 4-1.7 4.5-1.8 4.8v.2l-1 3.5-.7 3.5v.3l-.3.5m-8-112.3-2 1.8-15.5 13.2-42.2-5.7m83.5-2 .7 3 4.5 19.5 37.5 20.2" class="st8"/><path d="M589.2 424.5h1.7v86.8H356.4v-86.8zm1.5-105v88.8H358.2v-88.8m2 0h232.5m-5.5-6.5-6.3-15-23.2-56.7-178.5-.3-23.8 66.5-2 5.8m235.5 214.2v88.8H358.4v-88.8zm135.8-201.2-205.3-118 44.3-76.8 205.2 117.8zm-43 263.5-69.8-226 84.8-26 69.7 226zM589.2 634h3.7v88.8H358.4V634z" style="fill:none;stroke-linecap:round;stroke-miterlimit:10;stroke-width:14;stroke:#000"/></svg>