<svg xmlns="http://www.w3.org/2000/svg" width="850.394" height="850.394" overflow="visible"><path fill="#eedceb" d="m514.11 332.72 251.64 59.41-9.75 2.35-314.77 75.87-241.38-85 314.05-51.74z"/><path fill="#cc82b7" d="M441.23 470.35 756 394.48l-.82 101.1-3-.02-310.95 82.79zM386 298l.31 4.54-299.56 42.99V242.35l299.49-39.93z"/><path fill="#eedceb" d="m386.31 302.54 127.8 30.18-.21.89-314.05 51.74-113.1-39.82z"/><path fill="#cc82b7" d="m199.85 385.35 241.38 85v108l-2.73.72-.17-.65L86.75 442.06v-96.53z"/><g fill="none" stroke="#231f20"><path stroke-linecap="round" stroke-linejoin="round" stroke-width="28" d="M86.75 204.08v337.83m299.56-369.45-.07 29.96L386 298"/><path stroke-width="21" d="m86.75 242.35 299.49-39.93.07-.01M86.75 345.53l299.56-42.99 127.8 30.18 251.64 59.41-9.75 2.35-314.77 75.87-241.38-85-113.1-39.82"/><path stroke-width="21" d="m199.09 385.48.76-.13 314.05-51.74m238.28 161.95-310.95 82.79-2.73.72-4.38 1.17m4.21-1.82L86.75 442.06"/><path stroke-width="28" d="M441.23 470.35v204.69M756 394v.48l-.82 101.1-.77 96.21"/></g><path fill="none" d="M0 0h850.394v850.394H0z"/></svg>